<svg width="30" height="30" viewBox="0 0 30 30" fill="none" xmlns="http://www.w3.org/2000/svg">
<g clip-path="url(#clip0_1_56)">
<path fill-rule="evenodd" clip-rule="evenodd" d="M0 15C0 6.71575 6.71575 0 15 0C23.2843 0 30 6.71575 30 15C30 23.2843 23.2843 30 15 30C6.71575 30 0 23.2843 0 15ZM15.0007 7C12.8281 7 12.5554 7.0095 11.7021 7.04831C10.8504 7.08731 10.2691 7.22219 9.76038 7.42C9.23419 7.62431 8.78788 7.89769 8.34319 8.3425C7.89819 8.78719 7.62481 9.2335 7.41981 9.7595C7.2215 10.2684 7.0865 10.8499 7.04819 11.7012C7.01 12.5546 7 12.8274 7 15.0001C7 17.1727 7.00969 17.4446 7.04831 18.2979C7.0875 19.1496 7.22231 19.7309 7.42 20.2396C7.6245 20.7658 7.89781 21.2121 8.34269 21.6568C8.78719 22.1018 9.2335 22.3758 9.75937 22.5802C10.2684 22.778 10.8499 22.9128 11.7014 22.9518C12.5548 22.9907 12.8272 23.0002 14.9998 23.0002C17.1726 23.0002 17.4444 22.9907 18.2978 22.9518C19.1494 22.9128 19.7314 22.778 20.2405 22.5802C20.7665 22.3758 21.2121 22.1018 21.6566 21.6568C22.1016 21.2121 22.375 20.7658 22.58 20.2398C22.7767 19.7309 22.9117 19.1494 22.9517 18.2981C22.99 17.4447 23 17.1727 23 15.0001C23 12.8274 22.99 12.5548 22.9517 11.7014C22.9117 10.8497 22.7767 10.2684 22.58 9.75969C22.375 9.2335 22.1016 8.78719 21.6566 8.3425C21.2116 7.8975 20.7666 7.62419 20.24 7.42C19.7299 7.22219 19.1483 7.08731 18.2966 7.04831C17.4432 7.0095 17.1716 7 14.9983 7H15.0007Z" fill="black"/>
<path fill-rule="evenodd" clip-rule="evenodd" d="M14.2831 8.44172C14.4961 8.44141 14.7337 8.44172 15.0007 8.44172C17.1367 8.44172 17.3899 8.44941 18.2334 8.48772C19.0134 8.52341 19.4368 8.65372 19.7188 8.76322C20.0921 8.90822 20.3583 9.08153 20.6381 9.36153C20.9181 9.64153 21.0915 9.90822 21.2368 10.2816C21.3463 10.5632 21.4768 10.9866 21.5123 11.7666C21.5506 12.6099 21.559 12.8633 21.559 14.9983C21.559 17.1333 21.5506 17.3867 21.5123 18.23C21.4766 19.01 21.3463 19.4333 21.2368 19.715C21.0918 20.0883 20.9181 20.3542 20.6381 20.634C20.3581 20.914 20.0923 21.0873 19.7188 21.2323C19.4371 21.3423 19.0134 21.4723 18.2334 21.508C17.3901 21.5463 17.1367 21.5547 15.0007 21.5547C12.8646 21.5547 12.6114 21.5463 11.7681 21.508C10.9881 21.472 10.5647 21.3417 10.2826 21.2322C9.90918 21.0872 9.64249 20.9138 9.36249 20.6338C9.08249 20.3538 8.90918 20.0878 8.76387 19.7143C8.65437 19.4327 8.52387 19.0093 8.48837 18.2293C8.44999 17.386 8.44237 17.1327 8.44237 14.9963C8.44237 12.8599 8.44999 12.6079 8.48837 11.7646C8.52399 10.9846 8.65437 10.5612 8.76387 10.2792C8.90887 9.90591 9.08249 9.63922 9.36249 9.35922C9.64249 9.07922 9.90918 8.90591 10.2826 8.76053C10.5646 8.65053 10.9881 8.52053 11.7681 8.48472C12.5061 8.45141 12.7921 8.44141 14.2831 8.43972V8.44172ZM19.2711 9.77003C18.7411 9.77003 18.3111 10.1996 18.3111 10.7297C18.3111 11.2597 18.7411 11.6897 19.2711 11.6897C19.8011 11.6897 20.2311 11.2597 20.2311 10.7297C20.2311 10.1997 19.8011 9.77003 19.2711 9.77003ZM15.0007 10.8917C12.7319 10.8917 10.8924 12.7313 10.8924 15.0001C10.8924 17.269 12.7319 19.1077 15.0007 19.1077C17.2696 19.1077 19.1084 17.269 19.1084 15.0001C19.1084 12.7313 17.2696 10.8917 15.0007 10.8917Z" fill="black"/>
<path fill-rule="evenodd" clip-rule="evenodd" d="M15.0007 12.3334C16.4734 12.3334 17.6674 13.5272 17.6674 15.0001C17.6674 16.4727 16.4734 17.6667 15.0007 17.6667C13.5278 17.6667 12.334 16.4727 12.334 15.0001C12.334 13.5272 13.5278 12.3334 15.0007 12.3334Z" fill="black"/>
</g>
<defs>
<clipPath id="clip0_1_56">
<rect width="30" height="30" fill="white"/>
</clipPath>
</defs>
</svg>
